<svg preserveAspectRatio="none" width="100%" height="100%" overflow="visible" style="display: block;" viewBox="0 0 87.5944 25.3677" fill="none" xmlns="http://www.w3.org/2000/svg">
<g id="Macgie">
<path id="Vector" d="M87.5944 11.8797C87.5944 12.3597 87.5624 12.7917 87.4984 13.1757H77.7784C77.8584 14.1357 78.1944 14.8877 78.7864 15.4317C79.3784 15.9757 80.1064 16.2477 80.9704 16.2477C82.2184 16.2477 83.1064 15.7117 83.6344 14.6397H87.2584C86.8744 15.9197 86.1384 16.9757 85.0504 17.8077C83.9624 18.6237 82.6264 19.0317 81.0424 19.0317C79.7624 19.0317 78.6104 18.7517 77.5864 18.1917C76.5784 17.6157 75.7864 16.8077 75.2104 15.7677C74.6504 14.7277 74.3704 13.5277 74.3704 12.1677C74.3704 10.7917 74.6504 9.58371 75.2104 8.54371C75.7704 7.50371 76.5544 6.70371 77.5624 6.14371C78.5704 5.58371 79.7304 5.30371 81.0424 5.30371C82.3064 5.30371 83.4344 5.57571 84.4264 6.11971C85.4344 6.66371 86.2104 7.43971 86.7544 8.44771C87.3144 9.43971 87.5944 10.5837 87.5944 11.8797ZM84.1144 10.9197C84.0984 10.0557 83.7864 9.36771 83.1784 8.85571C82.5704 8.32771 81.8264 8.06371 80.9464 8.06371C80.1144 8.06371 79.4104 8.31971 78.8344 8.83171C78.2744 9.32771 77.9304 10.0237 77.8024 10.9197H84.1144Z" fill="var(--fill-0, #070707)"/>
<path id="Vector_2" d="M70.2587 3.936C69.6667 3.936 69.1707 3.752 68.7707 3.384C68.3867 3 68.1947 2.528 68.1947 1.968C68.1947 1.408 68.3867 0.944 68.7707 0.576C69.1707 0.192 69.6667 0 70.2587 0C70.8507 0 71.3387 0.192 71.7227 0.576C72.1227 0.944 72.3227 1.408 72.3227 1.968C72.3227 2.528 72.1227 3 71.7227 3.384C71.3387 3.752 70.8507 3.936 70.2587 3.936ZM71.9147 5.52V18.816H68.5547V5.52H71.9147Z" fill="var(--fill-0, #070707)"/>
<path id="Vector_3" d="M57.497 5.30371C58.489 5.30371 59.361 5.50371 60.113 5.90371C60.865 6.28771 61.457 6.79171 61.889 7.41571V5.51971H65.273V18.9117C65.273 20.1437 65.0251 21.2397 64.5291 22.1997C64.0331 23.1757 63.2891 23.9437 62.2971 24.5037C61.3051 25.0797 60.105 25.3677 58.697 25.3677C56.809 25.3677 55.2571 24.9277 54.041 24.0477C52.841 23.1677 52.161 21.9677 52.001 20.4477H55.337C55.513 21.0557 55.889 21.5357 56.465 21.8877C57.057 22.2557 57.7691 22.4397 58.6011 22.4397C59.5771 22.4397 60.3691 22.1437 60.9771 21.5517C61.5851 20.9757 61.889 20.0957 61.889 18.9117V16.8477C61.457 17.4717 60.8571 17.9917 60.0891 18.4077C59.337 18.8237 58.473 19.0317 57.497 19.0317C56.377 19.0317 55.353 18.7437 54.425 18.1677C53.497 17.5917 52.761 16.7837 52.217 15.7437C51.689 14.6877 51.425 13.4797 51.425 12.1197C51.425 10.7757 51.689 9.58371 52.217 8.54371C52.761 7.50371 53.4891 6.70371 54.4011 6.14371C55.3291 5.58371 56.361 5.30371 57.497 5.30371ZM61.889 12.1677C61.889 11.3517 61.729 10.6557 61.409 10.0797C61.089 9.48771 60.657 9.03971 60.113 8.73571C59.569 8.41571 58.985 8.25571 58.361 8.25571C57.737 8.25571 57.161 8.40771 56.633 8.71171C56.105 9.01571 55.673 9.46371 55.337 10.0557C55.017 10.6317 54.857 11.3197 54.857 12.1197C54.857 12.9197 55.017 13.6237 55.337 14.2317C55.673 14.8237 56.105 15.2797 56.633 15.5997C57.177 15.9197 57.753 16.0797 58.361 16.0797C58.985 16.0797 59.569 15.9277 60.113 15.6237C60.657 15.3037 61.089 14.8557 61.409 14.2797C61.729 13.6877 61.889 12.9837 61.889 12.1677Z" fill="var(--fill-0, #070707)"/>
<path id="Vector_4" d="M36.9875 12.1677C36.9875 10.7917 37.2675 9.59171 37.8275 8.56771C38.3875 7.52771 39.1635 6.72771 40.1555 6.16771C41.1475 5.59171 42.2835 5.30371 43.5635 5.30371C45.2115 5.30371 46.5716 5.71971 47.6436 6.55171C48.7316 7.36771 49.4595 8.51971 49.8275 10.0077H46.2035C46.0115 9.43171 45.6836 8.98371 45.2196 8.66371C44.7716 8.32771 44.2116 8.15971 43.5396 8.15971C42.5796 8.15971 41.8195 8.51171 41.2595 9.21571C40.6995 9.90371 40.4195 10.8877 40.4195 12.1677C40.4195 13.4317 40.6995 14.4157 41.2595 15.1197C41.8195 15.8077 42.5796 16.1517 43.5396 16.1517C44.8996 16.1517 45.7875 15.5437 46.2035 14.3277H49.8275C49.4595 15.7677 48.7316 16.9117 47.6436 17.7597C46.5556 18.6077 45.1955 19.0317 43.5635 19.0317C42.2835 19.0317 41.1475 18.7517 40.1555 18.1917C39.1635 17.6157 38.3875 16.8157 37.8275 15.7917C37.2675 14.7517 36.9875 13.5437 36.9875 12.1677Z" fill="var(--fill-0, #070707)"/>
<path id="Vector_5" d="M20.7219 12.1197C20.7219 10.7757 20.9859 9.58371 21.5139 8.54371C22.0579 7.50371 22.7859 6.70371 23.6979 6.14371C24.6259 5.58371 25.6579 5.30371 26.7939 5.30371C27.7859 5.30371 28.6499 5.50371 29.3859 5.90371C30.1379 6.30371 30.7379 6.80771 31.1859 7.41571V5.51971H34.5699V18.8157H31.1859V16.8717C30.7539 17.4957 30.1539 18.0157 29.3859 18.4317C28.6339 18.8317 27.7619 19.0317 26.7699 19.0317C25.6499 19.0317 24.6259 18.7437 23.6979 18.1677C22.7859 17.5917 22.0579 16.7837 21.5139 15.7437C20.9859 14.6877 20.7219 13.4797 20.7219 12.1197ZM31.1859 12.1677C31.1859 11.3517 31.0259 10.6557 30.7059 10.0797C30.3859 9.48771 29.9539 9.03971 29.4099 8.73571C28.8659 8.41571 28.2819 8.25571 27.6579 8.25571C27.0339 8.25571 26.4579 8.40771 25.9299 8.71171C25.4019 9.01571 24.9699 9.46371 24.6339 10.0557C24.3139 10.6317 24.1539 11.3197 24.1539 12.1197C24.1539 12.9197 24.3139 13.6237 24.6339 14.2317C24.9699 14.8237 25.4019 15.2797 25.9299 15.5997C26.4739 15.9197 27.0499 16.0797 27.6579 16.0797C28.2819 16.0797 28.8659 15.9277 29.4099 15.6237C29.9539 15.3037 30.3859 14.8557 30.7059 14.2797C31.0259 13.6877 31.1859 12.9837 31.1859 12.1677Z" fill="var(--fill-0, #070707)"/>
<path id="Vector_6" d="M18.264 2.06445V18.8165H14.904V7.92045L10.416 18.8165H7.872L3.36 7.92045V18.8165H0V2.06445H3.816L9.144 14.5205L14.472 2.06445H18.264Z" fill="var(--fill-0, #070707)"/>
</g>
</svg>
