<svg xmlns="http://www.w3.org/2000/svg" width="88" height="25" viewBox="0 0 87.5944 25.368" fill="none" role="img" aria-label="Macgie">
  <path d="M87.5944 11.88C87.5944 12.36 87.5624 12.792 87.4984 13.176H77.7784C77.8584 14.136 78.1944 14.888 78.7864 15.432C79.3784 15.976 80.1064 16.248 80.9704 16.248C82.2184 16.248 83.1064 15.712 83.6344 14.64H87.2584C86.8744 15.92 86.1384 16.976 85.0504 17.808C83.9624 18.624 82.6264 19.032 81.0424 19.032C79.7624 19.032 78.6104 18.752 77.5864 18.192C76.5784 17.616 75.7864 16.808 75.2104 15.768C74.6504 14.728 74.3704 13.528 74.3704 12.168C74.3704 10.792 74.6504 9.584 75.2104 8.544C75.7704 7.504 76.5544 6.704 77.5624 6.144C78.5704 5.584 79.7304 5.304 81.0424 5.304C82.3064 5.304 83.4344 5.576 84.4264 6.12C85.4344 6.664 86.2104 7.44 86.7544 8.448C87.3144 9.44 87.5944 10.584 87.5944 11.88ZM84.1144 10.92C84.0984 10.056 83.7864 9.368 83.1784 8.856C82.5704 8.328 81.8264 8.064 80.9464 8.064C80.1144 8.064 79.4104 8.32 78.8344 8.832C78.2744 9.328 77.9304 10.024 77.8024 10.92H84.1144Z" fill="#070707"/>
  <path d="M70.2587 3.936C69.6667 3.936 69.1707 3.752 68.7707 3.384C68.3867 3 68.1947 2.528 68.1947 1.968C68.1947 1.408 68.3867 0.944 68.7707 0.576C69.1707 0.192 69.6667 0 70.2587 0C70.8507 0 71.3387 0.192 71.7227 0.576C72.1227 0.944 72.3227 1.408 72.3227 1.968C72.3227 2.528 72.1227 3 71.7227 3.384C71.3387 3.752 70.8507 3.936 70.2587 3.936ZM71.9147 5.52V18.816H68.5547V5.52H71.9147Z" fill="#070707"/>
  <path d="M57.497 5.304C58.489 5.304 59.361 5.504 60.113 5.904C60.865 6.288 61.457 6.792 61.889 7.416V5.52H65.273V18.912C65.273 20.144 65.0251 21.24 64.5291 22.2C64.0331 23.176 63.2891 23.944 62.2971 24.504C61.3051 25.08 60.105 25.368 58.697 25.368C56.809 25.368 55.2571 24.928 54.041 24.048C52.841 23.168 52.161 21.968 52.001 20.448H55.337C55.513 21.056 55.889 21.536 56.465 21.888C57.057 22.256 57.7691 22.44 58.6011 22.44C59.5771 22.44 60.3691 22.144 60.9771 21.552C61.5851 20.976 61.889 20.096 61.889 18.912V16.848C61.457 17.472 60.8571 17.992 60.0891 18.408C59.337 18.824 58.473 19.032 57.497 19.032C56.377 19.032 55.353 18.744 54.425 18.168C53.497 17.592 52.761 16.784 52.217 15.744C51.689 14.688 51.425 13.48 51.425 12.12C51.425 10.776 51.689 9.584 52.217 8.544C52.761 7.504 53.4891 6.704 54.4011 6.144C55.3291 5.584 56.361 5.304 57.497 5.304ZM61.889 12.168C61.889 11.352 61.729 10.656 61.409 10.08C61.089 9.488 60.657 9.04 60.113 8.736C59.569 8.416 58.985 8.256 58.361 8.256C57.737 8.256 57.161 8.408 56.633 8.712C56.105 9.016 55.673 9.464 55.337 10.056C55.017 10.632 54.857 11.32 54.857 12.12C54.857 12.92 55.017 13.624 55.337 14.232C55.673 14.824 56.105 15.28 56.633 15.6C57.177 15.92 57.753 16.08 58.361 16.08C58.985 16.08 59.569 15.928 60.113 15.624C60.657 15.304 61.089 14.856 61.409 14.28C61.729 13.688 61.889 12.984 61.889 12.168Z" fill="#070707"/>
  <path d="M36.9875 12.168C36.9875 10.792 37.2675 9.592 37.8275 8.568C38.3875 7.528 39.1635 6.728 40.1555 6.168C41.1475 5.592 42.2835 5.304 43.5635 5.304C45.2115 5.304 46.5716 5.72 47.6436 6.552C48.7316 7.368 49.4595 8.52 49.8275 10.008H46.2035C46.0115 9.432 45.6836 8.984 45.2196 8.664C44.7716 8.328 44.2116 8.16 43.5396 8.16C42.5796 8.16 41.8195 8.512 41.2595 9.216C40.6995 9.904 40.4195 10.888 40.4195 12.168C40.4195 13.432 40.6995 14.416 41.2595 15.12C41.8195 15.808 42.5796 16.152 43.5396 16.152C44.8996 16.152 45.7875 15.544 46.2035 14.328H49.8275C49.4595 15.768 48.7316 16.912 47.6436 17.76C46.5556 18.608 45.1955 19.032 43.5635 19.032C42.2835 19.032 41.1475 18.752 40.1555 18.192C39.1635 17.616 38.3875 16.816 37.8275 15.792C37.2675 14.752 36.9875 13.544 36.9875 12.168Z" fill="#070707"/>
  <path d="M20.7219 12.12C20.7219 10.776 20.9859 9.584 21.5139 8.544C22.0579 7.504 22.7859 6.704 23.6979 6.144C24.6259 5.584 25.6579 5.304 26.7939 5.304C27.7859 5.304 28.6499 5.504 29.3859 5.904C30.1379 6.304 30.7379 6.808 31.1859 7.416V5.52H34.5699V18.816H31.1859V16.872C30.7539 17.496 30.1539 18.016 29.3859 18.432C28.6339 18.832 27.7619 19.032 26.7699 19.032C25.6499 19.032 24.6259 18.744 23.6979 18.168C22.7859 17.592 22.0579 16.784 21.5139 15.744C20.9859 14.688 20.7219 13.48 20.7219 12.12ZM31.1859 12.168C31.1859 11.352 31.0259 10.656 30.7059 10.08C30.3859 9.488 29.9539 9.04 29.4099 8.736C28.8659 8.416 28.2819 8.256 27.6579 8.256C27.0339 8.256 26.4579 8.408 25.9299 8.712C25.4019 9.016 24.9699 9.464 24.6339 10.056C24.3139 10.632 24.1539 11.32 24.1539 12.12C24.1539 12.92 24.3139 13.624 24.6339 14.232C24.9699 14.824 25.4019 15.28 25.9299 15.6C26.4739 15.92 27.0499 16.08 27.6579 16.08C28.2819 16.08 28.8659 15.928 29.4099 15.624C29.9539 15.304 30.3859 14.856 30.7059 14.28C31.0259 13.688 31.1859 12.984 31.1859 12.168Z" fill="#070707"/>
  <path d="M18.264 2.064V18.816H14.904V7.91999L10.416 18.816H7.872L3.36 7.91999V18.816H0V2.064H3.816L9.144 14.52L14.472 2.064H18.264Z" fill="#070707"/>
</svg>
