<svg width="88" height="130" viewBox="0 0 88 130" fill="none" xmlns="http://www.w3.org/2000/svg">
<g clip-path="url(#clip0_1_2209)">
<path d="M46.5 26.5C49.7 24.5 55.8333 23.3333 58.5 23C69 23 75 25 78 32.5C81 40 79 45 76.5 50C74 55 59.5 56.5 51.2293 54.8757C42.9586 53.2513 38 44.5 39 40C40 35.5 42.5 29 46.5 26.5Z" fill="black"></path>
<path d="M71.5 14.5C69.5 15.7 65.5 23.942 64 27.6087C68.6667 28.7753 77.1 35.2 77.5 34C78 32.5 75.5 12.1 71.5 14.5Z" fill="black"></path>
<path d="M51 12.5C53.3397 13.8623 58.2452 24.1512 60 28.3136C54.5408 29.6381 42 32.5 43.0374 30.5841C43.8946 29.0008 48.0754 10.7972 51 12.5Z" fill="black"></path>
<path d="M42.1364 70.4571C42.8836 66.9595 46.3082 60.8894 47.9271 58.2916L49.6566 54.0273H63.5467C63.9826 57.0687 65.8223 64.7925 67.9144 69.5066C70.5296 75.3993 69.4088 81.0929 69.4088 84.4743C69.4088 88.5785 68.288 90.6061 70.5296 98.0195C72.7711 105.433 66.2332 109.044 66.9804 109.615C67.7276 110.185 69.4088 111.896 69.4088 114.367C69.4088 116.838 65.2993 114.367 62.4973 116.078C59.6953 117.788 42.1364 115.697 39.5213 114.367C36.9061 113.036 38.2137 110.945 35.5985 106.193C32.9834 101.441 34.8513 92.6971 35.5985 89.4656C36.3457 86.2342 38.7741 83.9531 39.5213 81.8622C40.2684 79.7713 41.2024 74.829 42.1364 70.4571Z" fill="black"></path>
<path d="M58.6679 95.8916C58.8693 91.4712 59.153 85.8403 62.0205 82.0739C65.6049 77.3658 69.3863 70.5234 73.231 71.6082C77.0758 72.6931 81.6247 71.7098 82.0394 68.7906C82.4397 65.9729 81.0036 65.5418 78.8364 64.7652L78.298 64.3593C77.9631 64.0274 77.608 63.6166 77.2348 63.5577C76.3255 63.4142 75.7085 64.0916 74.6101 64.1856C69.6787 64.6076 58.2782 71.6794 54.574 78.9063C51.6107 84.6879 52.5111 91.313 47.4804 96.5355L58.6679 95.8916Z" fill="black"></path>
<path d="M74.5 63.8793C73.3 62.2793 73 60.546 73 59.8793C77.4 57.4793 81.1667 57.8793 82.5 58.3793C82.6667 59.046 82.9 60.8793 82.5 62.8793C82.1 64.8793 80.5 65.8789 79 65.8789C77.5 65.8789 75.7 65.4793 74.5 63.8793Z" fill="black"></path>
<path d="M53.3794 36.0298L53.6607 36.0274C55.1621 36.0214 55.8938 36.272 57.025 37.0689C58.2336 37.92 58.9637 39.9174 59 41.1343C58.9184 42.3762 58.7397 43.8288 57.5275 44.7143C55.7933 45.9812 54.7803 46.0402 52.5814 46.0258C49.0187 45.9149 46.38 43.2533 47.1272 40.4651C47.8069 37.9293 50.0434 36.1189 53.3794 36.0298Z" fill="white"></path>
<path d="M55.3488 41.0215C57.0441 40.7559 57.0628 43.0246 56.9697 44.046C56.8753 45.0803 56.6443 45.6642 55.5857 46C53.5262 45.3992 53.5001 41.875 55.3488 41.0215Z" fill="black"></path>
<path d="M69.4059 36.0331C69.6681 36.0143 69.9014 36.0472 70.1484 36.0513C72.7877 36.0968 74.1969 37.7383 74.8 39.7624C74.9566 40.2881 74.9287 40.8098 74.9602 41.3563C75.0325 42.6163 75.103 43.8641 74.2371 44.9641C73.3416 46.1366 72.2442 46.6638 70.6601 46.9669C66.9798 47.3894 65.4849 45.5552 65.06 42.7352C64.6548 40.0462 66.3253 36.9788 69.4059 36.0331Z" fill="white"></path>
<path d="M70.3488 42.0215C72.0441 41.7559 72.0628 44.0246 71.9697 45.046C71.8753 46.0803 71.6443 46.6642 70.5857 47C68.5262 46.3992 68.5001 42.875 70.3488 42.0215Z" fill="black"></path>
<path d="M62.0617 43.0364C62.6169 43.0085 63.1778 43.0061 63.7341 43L64 43.6638C63.6049 43.7949 63.1768 43.8829 62.7674 43.9763L62.7098 44C62.2631 43.9593 61.1277 43.7609 61 43.3161L61.1071 43.1863C61.3891 43.0231 61.7227 43.0461 62.0617 43.0364Z" fill="white"></path>
<path d="M62 52.5667C63.808 51.8295 69.1976 50.5422 69.8317 51.2169C71.1455 52.6145 64.4106 53.6725 62 52.5667Z" fill="white"></path>
<path d="M66.4742 54.4994C65.6494 54.005 64.8247 53.3458 64 53.0162L68.9483 52.0273C69.4982 52.5218 70.4329 53.7084 69.7731 54.4994C68.9483 55.4883 67.0573 54.849 66.4742 54.4994Z" fill="#E386F3"></path>
<path d="M72 63.0002C72 62.531 72.0979 62.1341 72.2881 61.8127C72.48 61.4887 72.7484 61.2707 73.0371 61.135C73.5939 60.8733 74.2218 60.9151 74.6211 61.0149L74.3789 61.9846C74.1115 61.9177 73.7393 61.9104 73.4629 62.0403C73.3352 62.1003 73.2283 62.1886 73.1494 62.3215C73.069 62.4573 73 62.6697 73 63.0002C73.0001 63.2148 73.0894 63.3803 73.292 63.5324C73.5131 63.6984 73.8543 63.832 74.29 63.9231C75.1567 64.1041 76.2235 64.0832 76.9443 64.0031L77.0557 64.9973C76.2765 65.0838 75.0931 65.1122 74.085 64.9016C73.5835 64.7968 73.0805 64.6244 72.6924 64.3332C72.286 64.0283 72.0001 63.5853 72 63.0002Z" fill="black"></path>
<path d="M25.5 103C31.5 101.8 35.3333 102.5 36.5 103C37.6667 105.333 39.7 109.8 38.5 109C37 108 33 106.5 30.5 106.5C28 106.5 24 107.5 22.5 109C21 110.5 20.8787 112.793 23 113.5C24.5 114 25.5 113.5 27.5 112.5L27.5 112.5C29.5 111.5 31.5 112 32 114.5C32.5 117 31.5 119.5 29.5 120C27.5 120.5 24.5 121 21 119.5C17.5 118 15 115 15.5 111C15.834 108.328 18 104.5 25.5 103Z" fill="black"></path>
<path d="M39.1371 48.0735C40.7334 47.9503 42.1879 48.0009 43.0501 48.0871C43.3249 48.1146 43.5249 48.3602 43.4974 48.635C43.4697 48.9095 43.2251 49.1097 42.9505 49.0822C42.1462 49.0018 40.7509 48.952 39.2142 49.0705C37.6726 49.1894 36.0256 49.4751 34.6976 50.0442C34.4438 50.1529 34.1491 50.0353 34.0404 49.7815C33.9319 49.5278 34.0496 49.234 34.3031 49.1252C35.775 48.4944 37.5455 48.1962 39.1371 48.0735Z" fill="black"></path>
<path d="M39.931 51.0148C41.4685 50.5682 42.9026 50.3205 43.7643 50.2288C44.0389 50.1996 44.2848 50.3991 44.3141 50.6737C44.343 50.9481 44.1445 51.194 43.8701 51.2233C43.0663 51.3088 41.6903 51.5452 40.2102 51.9751C38.7253 52.4064 37.1715 53.0225 35.9877 53.8509C35.7615 54.0092 35.449 53.9542 35.2907 53.728C35.1327 53.5019 35.1878 53.1902 35.4138 53.0319C36.7258 52.1137 38.398 51.4601 39.931 51.0148Z" fill="black"></path>
<path d="M42.8532 52.9474C44.2835 52.2278 45.6484 51.7227 46.4789 51.4753C46.7435 51.3965 47.0217 51.5478 47.1006 51.8125C47.1791 52.077 47.0288 52.355 46.7643 52.4338C45.9896 52.6646 44.6798 53.1479 43.3029 53.8407C41.9217 54.5356 40.5063 55.4248 39.4935 56.4552C39.3 56.6522 38.9827 56.6551 38.7858 56.4616C38.5892 56.268 38.5866 55.9516 38.7798 55.7547C39.9023 54.6126 41.4273 53.6649 42.8532 52.9474Z" fill="black"></path>
<path d="M78.2392 47.8773C76.7404 48.0373 75.3964 48.3087 74.6071 48.513C74.3556 48.5781 74.2025 48.7998 74.2645 49.0076C74.3268 49.2152 74.5805 49.3308 74.8318 49.2657C75.5681 49.0751 76.8572 48.8138 78.3 48.6598C79.7475 48.5054 81.3149 48.4629 82.6238 48.6903C82.8739 48.7338 83.1319 48.5959 83.1992 48.3824C83.2662 48.1692 83.1179 47.9611 82.8681 47.9175C81.4174 47.6654 79.7335 47.7179 78.2392 47.8773Z" fill="black"></path>
<path d="M77.8927 50.2761C76.4056 50.1767 75.0408 50.2145 74.2284 50.2813C73.9696 50.3026 73.7677 50.496 73.777 50.7128C73.7866 50.9293 74.0036 51.0876 74.2623 51.0663C75.0201 51.004 76.3294 50.9667 77.761 51.0624C79.1972 51.1584 80.7221 51.386 81.9314 51.8367C82.1626 51.9229 82.4454 51.8305 82.5624 51.6305C82.6791 51.4306 82.5865 51.1987 82.3556 51.1125C81.0152 50.6129 79.3755 50.3751 77.8927 50.2761Z" fill="black"></path>
<path d="M75.4357 52.2356C74.0119 51.9083 72.6773 51.7361 71.8732 51.6777C71.6169 51.6591 71.3787 51.8205 71.3406 52.0375C71.3029 52.2543 71.4794 52.4451 71.7355 52.4637C72.4855 52.5182 73.7661 52.6823 75.1368 52.9974C76.5118 53.3135 77.9444 53.7742 79.0218 54.4084C79.2277 54.5296 79.5227 54.4812 79.6799 54.3002C79.8368 54.1193 79.7972 53.8745 79.5915 53.7533C78.3974 53.0504 76.8553 52.562 75.4357 52.2356Z" fill="black"></path>
</g>
<defs>
<clipPath id="clip0_1_2209">
<rect width="88" height="130" fill="white"></rect>
</clipPath>
</defs>
</svg>