<svg width="88" height="130" viewBox="0 0 88 130" fill="none" xmlns="http://www.w3.org/2000/svg">
<g clip-path="url(#clip0_4604_1349)">
<path d="M48.5082 9.02734C49.3879 9.14471 50.1769 9.40779 50.7502 10.138C52.4146 12.2581 52.8078 12.4655 53.8248 14.9149C54.9923 17.7268 55.2054 16.5928 55.9718 19.5419C56.0539 19.9688 56.3952 20.7224 56.3981 21.1126C57.0495 22.8636 57.4903 23.1791 59.5656 22.8858C60.0146 22.8224 61.0146 22.8819 61.5111 22.8636C61.8933 22.8495 62.6383 22.9563 62.9811 22.7838C63.8844 22.7838 65.5152 20.4412 65.5152 20.4412C65.5152 20.4412 67.6221 16.5406 68.0339 15.3775C68.2472 14.7751 68.5292 14.2119 68.7815 13.6256C70.1604 9.40792 73.5044 8.6224 75.16 13.3165C75.3775 13.933 75.8808 14.7973 76.1065 15.4529C77.5823 19.72 78.5514 18.7 79.4006 23.1273C79.5281 23.7923 79.4453 24.611 79.5144 25.2944C79.7461 27.8732 79.6013 30.4888 79.4876 33.0724C79.4 34.0615 79.1434 35.0196 79.1255 36.0162C79.1093 36.9114 79.4671 37.7565 79.6006 38.6292C79.8243 40.0928 79.9496 41.7351 79.7261 43.1987C79.6307 43.8229 79.4108 44.5124 79.2645 45.1286C80.303 44.9729 87.3148 43.9503 87.5123 45.0704C87.4138 45.2738 87.4482 45.2911 87.2848 45.3747C86.7658 45.3488 85.6594 45.1084 85.2441 45.1459C83.5835 45.2952 80.5976 45.486 79.0242 45.9258C78.5953 46.4821 78.1905 47.4395 78.151 48.1509C78.1491 48.1854 78.1877 48.3543 78.2327 48.3618C81.119 48.8334 84.1872 48.5676 86.9774 49.6058C87.3224 49.7343 87.8382 49.8831 88 50.2381L87.9901 50.3984C87.6591 50.6226 86.865 50.2128 86.4908 50.0785C84.5372 49.3775 82.4635 49.3291 80.4114 49.2029C79.5735 49.1516 78.5735 49.0524 77.7327 49.1031C77.0261 49.8612 76.4012 50.6002 75.6707 51.3732C76.4577 51.7352 77.5071 51.8689 78.353 52.0868C80.1887 52.5606 82.092 53.1232 83.6649 54.2104C83.9281 54.3925 84.8071 54.8387 84.5892 55.2088C84.4181 55.278 84.3952 55.2791 84.2106 55.2693C83.7472 55.0261 83.3286 54.7407 82.8737 54.5067C81.2673 53.6812 79.5505 53.1284 77.815 52.6413C76.9964 52.4119 75.9872 52.2684 75.1357 52.0476C73.9389 52.6459 72.9473 53.4864 71.614 54.0818C70.5826 54.543 68.8098 54.9015 67.9698 55.3742C67.9488 61.1017 65.99 67.2618 68.9925 74.7466C69.3847 76.5175 68.5798 77.6018 68.9925 79.4009C69.7678 82.5679 66.1787 85.7739 65.99 89.0273H37.1391C37.6595 86.7827 37.7439 84.7386 38.173 82.5245C38.6051 80.7624 39.2457 78.984 39.8879 77.2853C40.1677 76.5451 40.6013 75.4412 40.9844 74.7466C42.51 71.982 43.8177 69.1125 45.3546 66.3514C45.7634 65.617 45.9809 64.5754 46.3196 63.7954C47.1521 61.76 48.0354 59.7834 48.7861 57.7146C49.1951 56.5882 49.6108 55.8267 49.8283 54.5862C49.3726 54.1522 47.9314 53.6149 47.2656 53.2621C46.2681 52.7341 45.4312 51.9732 44.4176 51.5911C42.7528 52.141 41.0617 52.7826 39.552 53.6605C39.3079 53.8028 39.0597 53.9424 38.8136 54.0807C38.1339 54.4548 37.443 54.8082 36.7417 55.1402C36.4183 55.297 35.9414 55.6411 35.6157 55.531C35.5823 55.4042 35.5844 55.3713 35.6548 55.2497C35.8337 54.9407 39.4168 52.7168 39.9379 52.4828C41.1746 51.9277 42.6119 51.6147 43.7557 50.8953C43.1936 50.3459 42.4297 49.1343 41.6273 49.2127C39.0625 49.4623 36.6076 49.879 34.1172 50.546C33.9343 50.595 33.613 50.5719 33.4578 50.4468C33.4451 50.3275 33.4375 50.3062 33.5221 50.2082C33.9758 49.6836 40.3795 48.6685 41.4882 48.4333C40.8775 47.409 40.614 46.7449 40.1351 45.6837C37.8158 45.7165 35.8762 45.739 33.5999 46.2988C33.437 46.3385 33.163 46.2815 33.0209 46.1783C32.6772 45.1586 36.6728 45.1286 37.2457 45.1315C38.148 45.1355 39.0357 45.0571 39.9301 45.0352C39.0233 43.0234 38.9115 41.6573 39.261 39.4576C39.3218 39.0748 39.6133 37.8447 39.5585 37.5576C39.2598 35.9909 39.111 34.5999 39.034 33.0014C38.9137 30.5026 38.7723 28.0225 39.2377 25.5433C39.4986 24.1921 39.5 23 40.3808 21.2525C41.2616 19.5049 44.0289 15.6781 45.3847 12.9596C46.1672 11.3906 46.8172 9.86214 48.5082 9.02734Z" fill="black"></path>
<path d="M42.1364 70.4571C42.8836 66.9595 46.3082 60.8894 47.9271 58.2916L49.6566 54.0273H63.5467C63.9826 57.0687 65.8223 64.7925 67.9144 69.5066C70.5296 75.3993 69.4088 81.0929 69.4088 84.4743C69.4088 88.5785 68.288 90.6061 70.5296 98.0195C72.7711 105.433 66.2332 109.044 66.9804 109.615C67.7276 110.185 69.4088 111.896 69.4088 114.367C69.4088 116.838 65.2993 114.367 62.4973 116.078C59.6954 117.788 42.1364 115.697 39.5213 114.367C37.0198 113.094 38.1074 111.126 35.9179 106.798C34.4245 105.537 32.107 103.305 29.1284 104.778C27.3278 105.668 26.7127 107.167 27.1153 108.759C27.5179 110.351 27.9205 110.75 29.531 111.148C31.1414 111.546 31.9467 110.75 33.1545 110.75C34.3623 110.75 36.3754 110.75 37.1806 113.935C37.5219 115.284 36.3754 117.518 34.3623 117.916C32.2363 118.336 27.9205 117.518 25.5049 116.323C23.0892 115.129 21.4786 111.944 21.076 109.615C20.6734 107.285 21.8497 102.964 25.1021 101.195C29.3393 98.8904 32.2387 99.7829 34.2697 100.45C34.1061 96.215 35.1009 91.6178 35.5985 89.4656C36.3457 86.2342 38.7741 83.9531 39.5213 81.8622C40.2684 79.7713 41.2024 74.829 42.1364 70.4571Z" fill="black"></path>
<path d="M61.5439 85.0195C61.7453 80.5991 62.029 74.9682 64.8965 71.2018C68.4809 66.4937 72.2623 59.6513 76.1071 60.7361C79.9518 61.821 84.5007 60.8377 84.9154 57.9185C85.3157 55.1008 83.8797 54.6697 81.7124 53.8931L81.174 53.4872C80.8391 53.1553 80.4841 52.7445 80.1108 52.6856C79.2015 52.5421 78.5845 53.2195 77.4861 53.3135C72.5547 53.7355 61.1542 60.8073 57.45 68.0342C54.4867 73.8158 55.3871 80.4409 50.3564 85.6634L61.5439 85.0195Z" fill="black"></path>
<path d="M53.3794 36.0027L53.6607 36.0001C55.1621 35.9935 55.8938 36.2691 57.025 37.1457C58.2336 38.0819 58.9637 40.2791 59 41.6176C58.9184 42.9837 58.7397 44.5816 57.5275 45.5556C55.7933 46.9493 54.7803 47.0141 52.5814 46.9983C49.0187 46.8763 46.38 43.9486 47.1272 40.8815C47.8069 38.0921 50.0434 36.1007 53.3794 36.0027Z" fill="white"></path>
<path d="M54.3488 37.0215C56.0441 36.7559 56.0628 39.0246 55.9697 40.046C55.8753 41.0803 55.6443 41.6642 54.5857 42C52.5262 41.3992 52.5001 37.875 54.3488 37.0215Z" fill="black"></path>
<path d="M69.4059 36.0331C69.6681 36.0143 69.9014 36.0472 70.1484 36.0513C72.7877 36.0968 74.1969 37.7383 74.8 39.7624C74.9566 40.2881 74.9287 40.8098 74.9602 41.3563C75.0325 42.6163 75.103 43.8641 74.2371 44.9641C73.3416 46.1366 72.2442 46.6638 70.6601 46.9669C66.9798 47.3894 65.4849 45.5552 65.06 42.7352C64.6548 40.0462 66.3253 36.9788 69.4059 36.0331Z" fill="white"></path>
<path d="M70.3488 38.0215C72.0441 37.7559 72.0628 40.0246 71.9697 41.046C71.8753 42.0803 71.6443 42.6642 70.5857 43C68.5262 42.3992 68.5001 38.875 70.3488 38.0215Z" fill="black"></path>
<path d="M62.0617 43.0364C62.6169 43.0085 63.1778 43.0061 63.7341 43L64 43.6638C63.6049 43.7949 63.1768 43.8829 62.7674 43.9763L62.7098 44C62.2631 43.9593 61.1277 43.7609 61 43.3161L61.1071 43.1863C61.3891 43.0231 61.7227 43.0461 62.0617 43.0364Z" fill="white"></path>
<path d="M62 52.5667C63.808 51.8295 69.1976 50.5422 69.8317 51.2169C71.1455 52.6145 64.4106 53.6725 62 52.5667Z" fill="white"></path>
<path d="M46.6301 29.3953L46.4166 29.2646C46.29 29.4712 46.107 29.8044 45.9664 30.1389C45.8961 30.306 45.8339 30.4795 45.7955 30.6413C45.7587 30.7963 45.736 30.9709 45.7737 31.1252L46.0167 31.0666L46.2597 31.008C46.2506 30.9705 46.2508 30.8899 46.2822 30.7576C46.312 30.6322 46.3633 30.4863 46.4277 30.3332C46.5563 30.0273 46.7267 29.7167 46.8435 29.5261L46.6301 29.3953ZM46.0167 31.0666L45.7737 31.1252C45.807 31.262 45.9018 31.3652 45.9888 31.4369C46.0807 31.5126 46.1944 31.5781 46.3145 31.6331C46.555 31.7434 46.8542 31.8267 47.1411 31.8614C47.4195 31.895 47.7287 31.8881 47.9645 31.7767C48.0883 31.7183 48.2038 31.6249 48.2715 31.4835C48.3392 31.3418 48.3439 31.1831 48.3047 31.0224L48.0617 31.081L47.8186 31.1396C47.8379 31.2187 47.8262 31.2544 47.8199 31.2674C47.8136 31.2806 47.7978 31.3023 47.7499 31.3249C47.6424 31.3757 47.4476 31.3952 47.2002 31.3653C46.9613 31.3364 46.7127 31.2662 46.5223 31.179C46.4269 31.1353 46.3544 31.091 46.3066 31.0516C46.2539 31.0082 46.2556 30.9911 46.2597 31.008L46.0167 31.0666ZM48.0617 31.081L48.3047 31.0224C48.1799 30.5106 47.9492 30.1355 47.8299 29.8803C47.767 29.7458 47.7353 29.6489 47.7299 29.5636C47.725 29.487 47.7404 29.4031 47.8075 29.2935L47.5941 29.1628L47.3807 29.032C47.2652 29.2204 47.2186 29.4053 47.2306 29.5943C47.2421 29.7748 47.3063 29.9404 47.3767 30.091C47.524 30.4062 47.7096 30.6923 47.8186 31.1396L48.0617 31.081Z" fill="white"></path>
<path d="M78.2039 39.4618L78.4173 39.331C78.5439 39.5376 78.727 39.8708 78.8676 40.2053C78.9379 40.3724 79.0001 40.5459 79.0385 40.7077C79.0753 40.8627 79.098 41.0373 79.0603 41.1916L78.8173 41.133L78.5743 41.0744C78.5834 41.0369 78.5832 40.9563 78.5518 40.824C78.522 40.6986 78.4707 40.5527 78.4063 40.3996C78.2777 40.0937 78.1073 39.7831 77.9905 39.5925L78.2039 39.4618ZM78.8173 41.133L79.0603 41.1916C79.027 41.3284 78.9322 41.4316 78.8452 41.5033C78.7533 41.579 78.6396 41.6445 78.5195 41.6995C78.279 41.8098 77.9798 41.8931 77.6928 41.9278C77.4144 41.9614 77.1053 41.9545 76.8695 41.8431C76.7457 41.7847 76.6301 41.6914 76.5625 41.5499C76.4948 41.4082 76.4901 41.2495 76.5293 41.0888L76.7723 41.1474L77.0154 41.206C76.9961 41.2851 77.0078 41.3208 77.0141 41.3338C77.0204 41.347 77.0362 41.3687 77.0841 41.3913C77.1916 41.4421 77.3863 41.4616 77.6338 41.4317C77.8727 41.4028 78.1213 41.3326 78.3117 41.2454C78.4071 41.2017 78.4796 41.1574 78.5274 41.118C78.58 41.0746 78.5784 41.0575 78.5743 41.0744L78.8173 41.133ZM76.7723 41.1474L76.5293 41.0888C76.654 40.577 76.8848 40.2019 77.0041 39.9467C77.067 39.8122 77.0987 39.7153 77.1041 39.6301C77.109 39.5534 77.0936 39.4695 77.0265 39.3599L77.2399 39.2292L77.4533 39.0984C77.5688 39.2868 77.6154 39.4717 77.6034 39.6607C77.5919 39.8412 77.5277 40.0068 77.4573 40.1574C77.3099 40.4726 77.1244 40.7587 77.0154 41.206L76.7723 41.1474Z" fill="white"></path>
<path d="M66.4742 54.4994C65.6494 54.005 64.8247 53.3458 64 53.0162L68.9483 52.0273C69.4982 52.5218 70.4329 53.7084 69.7731 54.4994C68.9483 55.4883 67.0573 54.849 66.4742 54.4994Z" fill="#E386F3"></path>
</g>
<defs>
<clipPath id="clip0_4604_1349">
<rect width="88" height="130" fill="white"></rect>
</clipPath>
</defs>
</svg>