<svg width="22" height="22" viewBox="0 0 22 22" fill="none" xmlns="http://www.w3.org/2000/svg">
<path d="M0.146484 3.93152C0.146658 -0.468094 3.04917 -0.585706 5.55664 1.00574L10.0244 4.04969C11.805 5.14846 13.8787 5.14851 15.5859 3.93152L18.9268 1.70789C20.0412 0.86449 21.6472 1.07659 21.6475 2.995V16.453C21.6473 18.9689 20.3654 20.5484 18.2773 20.7401L5.55664 21.954C2.65567 22.2201 0.14658 20.0242 0.146484 17.2186V3.93152Z" fill="url(#paint0_radial_4647_12937)"></path>
<path d="M9.68848 8.10645C10.8874 8.10661 11.8695 9.93844 11.9697 12.2725C11.7764 12.0611 11.5099 11.9307 11.2158 11.9307C10.6253 11.9308 10.1465 12.4576 10.1465 13.1074C10.1467 13.757 10.6254 14.284 11.2158 14.2842C11.4645 14.2842 11.6933 14.1899 11.875 14.0332C11.5831 15.8833 10.7146 17.2254 9.68848 17.2256C8.42288 17.2256 7.39656 15.1842 7.39648 12.666C7.39648 10.1477 8.42284 8.10645 9.68848 8.10645Z" fill="url(#paint1_linear_4647_12937)"></path>
<path d="M18.2441 8.37109C19.0752 8.37161 19.7616 9.88188 19.8818 11.8516C19.7337 11.6721 19.535 11.5615 19.3164 11.5615C18.8586 11.5619 18.4873 12.0443 18.4873 12.6387C18.4875 13.2329 18.8587 13.7145 19.3164 13.7148C19.52 13.7148 19.7072 13.6199 19.8516 13.4619C19.6716 15.2427 19.021 16.562 18.2441 16.5625C17.3282 16.5625 16.585 14.7288 16.585 12.4668C16.585 10.2048 17.3282 8.37109 18.2441 8.37109Z" fill="url(#paint2_linear_4647_12937)"></path>
<defs>
<radialGradient id="paint0_radial_4647_12937" cx="0" cy="0" r="1" gradientTransform="matrix(-18.1341 9.69115 -7.45839 -13.3916 18.2805 7.07695)" gradientUnits="userSpaceOnUse">
<stop stop-color="#FDC146"></stop>
<stop offset="0.584881" stop-color="#FF4567"></stop>
<stop offset="1" stop-color="#6B4CCD"></stop>
</radialGradient>
<linearGradient id="paint1_linear_4647_12937" x1="11.8733" y1="9.95505" x2="7.16998" y2="14.8388" gradientUnits="userSpaceOnUse">
<stop stop-color="#D6D6D6"></stop>
<stop offset="1" stop-color="white"></stop>
</linearGradient>
<linearGradient id="paint2_linear_4647_12937" x1="19.5937" y1="10.7034" x2="17.5302" y2="14.131" gradientUnits="userSpaceOnUse">
<stop stop-color="#D6D6D6"></stop>
<stop offset="1" stop-color="white"></stop>
</linearGradient>
</defs>
</svg>