<svg width="48" height="48" viewBox="0 0 48 48" fill="none" xmlns="http://www.w3.org/2000/svg">
<path d="M23.4956 39.1367C18.4786 39.1367 14.4116 35.0697 14.4116 30.0527L14.4116 16.7422C14.4116 11.9483 18.2975 8.06102 23.0913 8.06055L23.4956 8.06055C28.5124 8.06058 32.5793 12.1278 32.5796 17.1445L32.5796 30.0527C32.5796 35.0697 28.5125 39.1367 23.4956 39.1367Z" stroke="white"></path>
<path d="M20.8737 20.9766C17.6468 20.9766 15.63 22.59 14.2183 23.4282V30.4555C14.2183 35.5792 18.3719 39.7328 23.4956 39.7328C28.6193 39.7328 32.7729 35.5792 32.7729 30.4555V21.674C28.0396 25.1754 24.5096 20.9766 20.8737 20.9766Z" fill="#53BCE9" stroke="white" stroke-linecap="round"></path>
</svg>