<svg width="100%" height="100%" viewBox="0 0 24 24" fill="none" xmlns="http://www.w3.org/2000/svg">
<path d="M13 4.68396L13.2005 18.1128C13.2005 18.3166 13.381 18.5 13.5815 18.5H15.5063C15.7068 18.5 15.8872 18.3166 15.8872 18.1128L16.2882 9.00402C16.2882 8.59647 16.609 8.29081 17.01 8.29081C17.411 8.29081 17.7318 8.61685 17.7318 9.00402L18.1328 18.1128C18.1328 18.3166 18.3133 18.5 18.5138 18.5H20.4185C20.619 18.5 20.7995 18.3166 20.7995 18.1128L21 4.68396C21 4.48019 20.8195 4.50057 20.619 4.50057H13.381C13.1805 4.50057 13 4.48019 13 4.68396Z" stroke="currentColor" stroke-width="1.5"></path>
<path d="M6.33333 3.5L9 4.375V6.5625H7.66667V10.0625C7.66667 10.1785 7.61984 10.2898 7.53649 10.3719C7.45314 10.4539 7.3401 10.5 7.22222 10.5H2.77778C2.6599 10.5 2.54686 10.4539 2.46351 10.3719C2.38016 10.2898 2.33333 10.1785 2.33333 10.0625V6.5625H1V4.375L3.66667 3.5C3.66667 3.8481 3.80714 4.18194 4.05719 4.42808C4.30724 4.67422 4.64638 4.8125 5 4.8125C5.35362 4.8125 5.69276 4.67422 5.94281 4.42808C6.19286 4.18194 6.33333 3.8481 6.33333 3.5Z" stroke="currentColor" stroke-width="1.5" stroke-linecap="round" stroke-linejoin="round"></path>
<path d="M8.86719 12.3066C9.16514 12.4737 9.43459 12.7056 9.6582 12.9912C9.90991 13.3128 10.0959 13.6946 10.2002 14.1104C10.2695 14.4701 10.2665 14.8424 10.1895 15.2002C10.1114 15.5628 9.96042 15.8979 9.75195 16.1826L9.72461 16.2217C9.25123 16.963 8.92287 17.7937 8.75195 18.6631C8.62663 18.1998 8.47577 17.7446 8.29785 17.3008L7.93652 16.4004L7.15625 16.9756C6.39727 17.5351 5.69786 18.182 5.07031 18.9043C4.83239 19.1716 4.55117 19.3817 4.24512 19.5244C3.93946 19.6669 3.61331 19.7409 3.28516 19.7441H3.28223C3.12926 19.7461 2.97628 19.7328 2.8252 19.7041H2.82617C2.40448 19.6223 1.82765 19.3441 1.37402 18.9473C0.90377 18.5358 0.732316 18.1509 0.751953 17.8867C0.776162 17.603 0.98303 17.3587 1.61719 17.1865C2.22377 17.0219 2.92683 17.0186 3.33105 17.0186C4.14765 17.0185 4.86114 16.5461 5.47852 15.999C6.11136 15.4383 6.79129 14.6608 7.5293 13.8184L7.53125 13.8154C7.94014 13.3441 8.38519 12.8378 8.86719 12.3066Z" stroke="currentColor" stroke-width="1.5"></path>
</svg>