<svg width="100%" height="100%" viewBox="0 0 12 12" fill="none" xmlns="http://www.w3.org/2000/svg">
<path fill-rule="evenodd" clip-rule="evenodd" d="M2.625 1.25005C2.26033 1.25005 1.91059 1.39493 1.65273 1.6528C1.39487 1.91067 1.25 2.26043 1.25 2.62511C1.25 2.9898 1.39487 3.33955 1.65273 3.59743C1.91059 3.8553 2.26033 4.00017 2.625 4.00017C2.98967 4.00017 3.33941 3.8553 3.59727 3.59743C3.85513 3.33955 4 2.9898 4 2.62511C4 2.26043 3.85513 1.91067 3.59727 1.6528C3.33941 1.39493 2.98967 1.25005 2.625 1.25005ZM5.25 2.62511C5.25009 3.10364 5.11939 3.57309 4.87203 3.98271C4.62466 4.39233 4.27004 4.72654 3.8465 4.94921L4.4515 5.28523L10.9144 1.6963C11.1558 1.56224 11.4602 1.64927 11.5942 1.89068L11.7157 2.10948C11.8498 2.3509 11.7628 2.65529 11.5214 2.78935L5.739 6.00026L7.49133 6.97351C7.73276 7.1076 7.81976 7.41203 7.68564 7.65345L7.56427 7.8719C7.43018 8.11324 7.12586 8.20023 6.88448 8.0662L4.4515 6.71529L3.8465 7.05131C4.25824 7.26777 4.60506 7.58977 4.85146 7.98433C5.09787 8.37889 5.23501 8.83184 5.24884 9.29683C5.26267 9.76181 5.1527 10.2221 4.93018 10.6306C4.70767 11.0391 4.3806 11.3812 3.98246 11.6217C3.58432 11.8623 3.12941 11.9927 2.66429 11.9997C2.19918 12.0067 1.74056 11.8899 1.3354 11.6614C0.930239 11.4328 0.593079 11.1007 0.358435 10.6991C0.123791 10.2974 9.20211e-05 9.84059 0 9.37541C0.000168051 8.88512 0.131398 8.40379 0.380099 7.98127C0.6288 7.55875 0.985929 7.2104 1.4145 6.9723L3.1645 6.00026L1.4145 5.02872C0.985855 4.79058 0.628678 4.44215 0.379972 4.01953C0.131267 3.59692 7.8913e-05 3.11548 0 2.62511C0 1.92889 0.276562 1.26118 0.768845 0.768878C1.26113 0.276574 1.92881 0 2.625 0C3.32119 0 3.98887 0.276574 4.48116 0.768878C4.97344 1.26118 5.25 1.92889 5.25 2.62511ZM1.25 9.37541C1.25 9.74009 1.39487 10.0898 1.65273 10.3477C1.91059 10.6056 2.26033 10.7505 2.625 10.7505C2.98967 10.7505 3.33941 10.6056 3.59727 10.3477C3.85513 10.0898 4 9.74009 4 9.37541C4 9.01072 3.85513 8.66097 3.59727 8.40309C3.33941 8.14522 2.98967 8.00035 2.625 8.00035C2.26033 8.00035 1.91059 8.14522 1.65273 8.40309C1.39487 8.66097 1.25 9.01072 1.25 9.37541ZM6 9.62544C6 9.90158 6.22386 10.1254 6.5 10.1254H7C7.27614 10.1254 7.5 9.90158 7.5 9.62544V9.37538C7.5 9.09924 7.27614 8.87538 7 8.87538H6.5C6.22386 8.87538 6 9.09924 6 9.37538V9.62544ZM9.75 9.62544C9.75 9.90158 9.52614 10.1254 9.25 10.1254H8.75C8.47386 10.1254 8.25 9.90158 8.25 9.62544V9.37538C8.25 9.09924 8.47386 8.87538 8.75 8.87538H9.25C9.52614 8.87538 9.75 9.09924 9.75 9.37538V9.62544ZM10.5 9.62544C10.5 9.90158 10.7239 10.1254 11 10.1254H11.5C11.7761 10.1254 12 9.90158 12 9.62544V9.37538C12 9.09924 11.7761 8.87538 11.5 8.87538H11C10.7239 8.87538 10.5 9.09924 10.5 9.37538V9.62544Z" fill="currentColor"></path>
</svg>