<svg viewBox="0 0 24 24" fill="none" xmlns="http://www.w3.org/2000/svg">
  <path d="M10 5C10.45 8.2 11.8 9.55 15 10C11.8 10.45 10.45 11.8 10 15C9.55 11.8 8.2 10.45 5 10C8.2 9.55 9.55 8.2 10 5Z" fill="currentColor"></path>
  <path d="M18 3C18.22 4.28 18.72 4.78 20 5C18.72 5.22 18.22 5.72 18 7C17.78 5.72 17.28 5.22 16 5C17.28 4.78 17.78 4.28 18 3Z" fill="currentColor"></path>
  <path d="M18.5 14C18.65 14.85 18.65 14.85 19.5 15C18.65 15.15 18.65 15.15 18.5 16C18.35 15.15 18.35 15.15 17.5 15C18.35 14.85 18.35 14.85 18.5 14Z" fill="currentColor"></path>
</svg>